HIERARCHY
ROOT joint_0
{
	OFFSET 0.000000 0.000000 0.000000
	CHANNELS 6 Xposition Yposition Zposition Zrotation Yrotation Xrotation 
	JOINT joint_1
	{
		OFFSET 6.590088 -1.122192 114.019043
		CHANNELS 3 Zrotation Yrotation Xrotation
		JOINT joint_2
		{
			OFFSET -5.956055 -0.820435 104.151001
			CHANNELS 3 Zrotation Yrotation Xrotation
			JOINT joint_3
			{
				OFFSET -7.343506 -1.103027 103.942993
				CHANNELS 3 Zrotation Yrotation Xrotation
				JOINT joint_4
				{
					OFFSET 3.109131 -2.857056 147.715942
					CHANNELS 3 Zrotation Yrotation Xrotation
					JOINT joint_5
					{
						OFFSET 28.592285 -2.852295 87.703979
						CHANNELS 3 Zrotation Yrotation Xrotation
						End Site
						{
							OFFSET 0.000000 0.000000 0.000000
						}
					}
				}
				JOINT joint_6
				{
					OFFSET -0.332520 -33.687378 82.401978
					CHANNELS 3 Zrotation Yrotation Xrotation
					JOINT joint_7
					{
						OFFSET -7.397461 -168.719177 -22.750977
						CHANNELS 3 Zrotation Yrotation Xrotation
						JOINT joint_8
						{
							OFFSET 17.065918 -24.903137 -272.721069
							CHANNELS 3 Zrotation Yrotation Xrotation
							JOINT joint_9
							{
								OFFSET 33.311279 -37.031616 -278.192993
								CHANNELS 3 Zrotation Yrotation Xrotation
								End Site
								{
									OFFSET 0.000000 0.000000 0.000000
								}
							}
						}
					}
				}
				JOINT joint_10
				{
					OFFSET 3.914307 30.461670 83.552979
					CHANNELS 3 Zrotation Yrotation Xrotation
					JOINT joint_11
					{
						OFFSET 15.543701 166.845459 -30.963013
						CHANNELS 3 Zrotation Yrotation Xrotation
						JOINT joint_12
						{
							OFFSET 35.734863 35.017700 -269.786011
							CHANNELS 3 Zrotation Yrotation Xrotation
							JOINT joint_13
							{
								OFFSET 70.506592 13.977783 -273.320007
								CHANNELS 3 Zrotation Yrotation Xrotation
								End Site
								{
									OFFSET 0.000000 0.000000 0.000000
								}
							}
						}
					}
				}
			}
		}
	}
	JOINT joint_14
	{
		OFFSET -0.314697 -95.093994 -116.004028
		CHANNELS 3 Zrotation Yrotation Xrotation
		JOINT joint_15
		{
			OFFSET -22.490723 2.017883 -455.510986
			CHANNELS 3 Zrotation Yrotation Xrotation
			JOINT joint_16
			{
				OFFSET -46.427490 7.144104 -496.360985
				CHANNELS 3 Zrotation Yrotation Xrotation
				JOINT joint_17
				{
					OFFSET 209.055420 -37.122803 -85.191002
					CHANNELS 3 Zrotation Yrotation Xrotation
					End Site
					{
						OFFSET 0.000000 0.000000 0.000000
					}
				}
			}
		}
	}
	JOINT joint_18
	{
		OFFSET 5.652832 94.642578 -116.244019
		CHANNELS 3 Zrotation Yrotation Xrotation
		JOINT joint_19
		{
			OFFSET -12.379883 -7.332642 -455.843994
			CHANNELS 3 Zrotation Yrotation Xrotation
			JOINT joint_20
			{
				OFFSET -45.227051 -8.172241 -496.457985
				CHANNELS 3 Zrotation Yrotation Xrotation
				JOINT joint_21
				{
					OFFSET 210.522949 -11.530396 -88.809004
					CHANNELS 3 Zrotation Yrotation Xrotation
					End Site
					{
						OFFSET 0.000000 0.000000 0.000000
					}
				}
			}
		}
	}
}
MOTION
Frames: 18
Frame Time: 0.016667
-2523.333008 1045.429077 1182.436035 1.000991 -0.830377 0.548067 0.489753 0.991788 -2.029277 0.626121 -0.203487 0.472320 0.574244 0.227205 -0.328647 -0.086885 0.820152 0.343508 0.000000 0.000000 0.000000 -1.360565 -1.702802 1.962737 -0.042016 -2.009320 4.849809 -1.207177 3.522874 -6.073261 0.000000 0.000000 0.000000 1.919492 -1.816560 1.608181 -0.556358 -1.845236 -3.047214 1.376706 5.233569 4.579658 0.000000 0.000000 0.000000 3.172237 0.030616 -1.759069 3.079286 2.215590 0.366864 2.978394 -0.261863 1.167911 0.000000 0.000000 0.000000 1.493336 -0.261438 2.714953 1.573231 -0.817162 0.343828 1.494705 2.043119 0.738280 0.000000 0.000000 0.000000 
-2523.388672 1045.416748 1182.435059 0.995247 -0.832197 0.546548 0.488959 1.004509 -2.029003 0.625161 -0.204213 0.470503 0.573540 0.229654 -0.327337 -0.087747 0.818576 0.345999 0.000000 0.000000 0.000000 -1.350406 -1.708177 1.965707 -0.041391 -2.013548 4.856020 -1.207310 3.523559 -6.073238 0.000000 0.000000 0.000000 1.925616 -1.818696 1.598337 -0.555625 -1.849499 -3.044666 1.378921 5.233995 4.588803 0.000000 0.000000 0.000000 3.174996 0.027585 -1.751373 3.082939 2.217104 0.356207 2.980878 -0.254069 1.170317 0.000000 0.000000 0.000000 1.494457 -0.259454 2.716149 1.574438 -0.822688 0.345932 1.495845 2.050147 0.739139 0.000000 0.000000 0.000000 
-2523.414062 1045.423706 1182.432983 0.993444 -0.836877 0.545999 0.486529 1.017129 -2.027696 0.622595 -0.205482 0.470272 0.571073 0.231083 -0.326633 -0.087104 0.819926 0.344163 0.000000 0.000000 0.000000 -1.341636 -1.710237 1.965535 -0.040902 -2.014731 4.861539 -1.207153 3.522681 -6.072886 0.000000 0.000000 0.000000 1.933659 -1.818502 1.586698 -0.554919 -1.851872 -3.042966 1.381174 5.235889 4.597937 0.000000 0.000000 0.000000 3.175973 0.041596 -1.751502 3.083815 2.196595 0.355688 2.981756 -0.241745 1.172870 0.000000 0.000000 0.000000 1.494722 -0.253054 2.715752 1.574843 -0.827799 0.347138 1.496186 2.054594 0.739525 0.000000 0.000000 0.000000 
-2523.385986 1045.470947 1182.433960 0.995060 -0.844435 0.546441 0.481747 1.025867 -2.022255 0.617508 -0.208814 0.471188 0.565943 0.234747 -0.327502 -0.083851 0.825953 0.334787 0.000000 0.000000 0.000000 -1.331493 -1.707971 1.960395 -0.040650 -2.011535 4.865979 -1.206637 3.519800 -6.072211 0.000000 0.000000 0.000000 1.947375 -1.814747 1.570432 -0.554056 -1.852105 -3.041439 1.383720 5.239706 4.608083 0.000000 0.000000 0.000000 3.175425 0.087934 -1.768182 3.081010 2.127446 0.377601 2.981459 -0.216307 1.177271 0.000000 0.000000 0.000000 1.494369 -0.243577 2.712894 1.574557 -0.827124 0.346950 1.495924 2.053300 0.739352 0.000000 0.000000 0.000000 
-2523.325684 1045.538452 1182.433960 1.000667 -0.854256 0.547772 0.475065 1.031582 -2.015131 0.610502 -0.209831 0.472983 0.558764 0.237029 -0.328710 -0.078780 0.834198 0.320060 0.000000 0.000000 0.000000 -1.321642 -1.702429 1.951796 -0.040534 -2.005203 4.869854 -1.205830 3.515396 -6.071141 0.000000 0.000000 0.000000 1.963857 -1.808512 1.552406 -0.553120 -1.850398 -3.041141 1.386406 5.244124 4.618764 0.000000 0.000000 0.000000 3.173214 0.150643 -1.792736 3.075555 2.036467 0.409708 2.979722 -0.186225 1.181907 0.000000 0.000000 0.000000 1.493133 -0.230342 2.708316 1.573420 -0.826008 0.346134 1.494838 2.049666 0.738708 0.000000 0.000000 0.000000 
-2523.257324 1045.583374 1182.430054 1.017315 -0.865128 0.552009 0.467795 1.039379 -2.012994 0.603078 -0.213672 0.473249 0.551423 0.240808 -0.328556 -0.075701 0.842973 0.311464 0.000000 0.000000 0.000000 -1.321316 -1.695113 1.947659 -0.040598 -1.998058 4.871206 -1.204935 3.511020 -6.069263 0.000000 0.000000 0.000000 1.972283 -1.803291 1.540485 -0.552746 -1.847551 -3.043184 1.388160 5.248297 4.625670 0.000000 0.000000 0.000000 3.167639 0.196900 -1.810007 3.067966 1.982551 0.428055 2.974464 -0.169794 1.182681 0.000000 0.000000 0.000000 1.488021 -0.209240 2.702023 1.568765 -0.839584 0.344714 1.489945 2.054050 0.736906 0.000000 0.000000 0.000000 
-2523.204102 1045.574585 1182.423950 1.058073 -0.879470 0.560699 0.457288 1.055054 -2.022383 0.593051 -0.215569 0.473086 0.541529 0.243597 -0.327581 -0.076989 0.849630 0.316001 0.000000 0.000000 0.000000 -1.338252 -1.688449 1.953475 -0.040495 -1.993298 4.868131 -1.203570 3.506144 -6.064165 0.000000 0.000000 0.000000 1.964527 -1.801901 1.541885 -0.553237 -1.844032 -3.050198 1.388722 5.250437 4.627850 0.000000 0.000000 0.000000 3.154473 0.210146 -1.812540 3.055056 2.002448 0.422427 2.961424 -0.180777 1.175408 0.000000 0.000000 0.000000 1.474029 -0.173256 2.694836 1.556021 -0.882092 0.341511 1.476356 2.075760 0.732400 0.000000 0.000000 0.000000 
-2523.142822 1045.544067 1182.412964 1.110418 -0.894970 0.572277 0.445666 1.072421 -2.036797 0.582121 -0.218711 0.471818 0.530909 0.246779 -0.325492 -0.080112 0.856069 0.326117 0.000000 0.000000 0.000000 -1.363747 -1.679937 1.963446 -0.040563 -1.987539 4.862687 -1.202086 3.501277 -6.058019 0.000000 0.000000 0.000000 1.950520 -1.801394 1.549629 -0.554342 -1.839492 -3.060305 1.388402 5.251896 4.626562 0.000000 0.000000 0.000000 3.137787 0.207123 -1.807900 3.039826 2.059333 0.403278 2.944688 -0.205798 1.164135 0.000000 0.000000 0.000000 1.456083 -0.129585 2.686013 1.539683 -0.939037 0.337525 1.458891 2.105249 0.726693 0.000000 0.000000 0.000000 
-2523.021484 1045.544067 1182.385986 1.141014 -0.902708 0.583681 0.441926 1.066115 -2.044926 0.578744 -0.218589 0.469596 0.527812 0.247268 -0.323810 -0.081732 0.867948 0.332140 0.000000 0.000000 0.000000 -1.380671 -1.661870 1.969552 -0.041896 -1.971056 4.857007 -1.201095 3.496638 -6.054620 0.000000 0.000000 0.000000 1.945759 -1.794952 1.552799 -0.555202 -1.831140 -3.070054 1.387421 5.252486 4.623153 0.000000 0.000000 0.000000 3.128304 0.205473 -1.803186 3.032006 2.100210 0.378222 2.934613 -0.225450 1.156541 0.000000 0.000000 0.000000 1.446540 -0.095082 2.673618 1.531145 -0.982851 0.336678 1.449610 2.124871 0.723881 0.000000 0.000000 0.000000 
-2522.811279 1045.589844 1182.337036 1.130619 -0.886289 0.598048 0.452458 1.010150 -2.050515 0.589895 -0.215822 0.471316 0.538601 0.241911 -0.325910 -0.080679 0.891312 0.331048 0.000000 0.000000 0.000000 -1.384241 -1.625980 1.970134 -0.045261 -1.935054 4.854629 -1.200819 3.488817 -6.059014 0.000000 0.000000 0.000000 1.958531 -1.777012 1.548469 -0.555346 -1.815370 -3.076863 1.385032 5.251488 4.615066 0.000000 0.000000 0.000000 3.132395 0.200087 -1.801429 3.038056 2.102110 0.340571 2.936890 -0.237778 1.155306 0.000000 0.000000 0.000000 1.450515 -0.088071 2.650251 1.534627 -1.003697 0.344152 1.453449 2.121123 0.725296 0.000000 0.000000 0.000000 
-2522.541260 1045.666138 1182.272949 1.099040 -0.862431 0.612530 0.470858 0.931473 -2.050951 0.608728 -0.210297 0.473385 0.556914 0.233499 -0.328983 -0.078127 0.920149 0.325867 0.000000 0.000000 0.000000 -1.380009 -1.580193 1.967604 -0.049923 -1.888034 4.851571 -1.200991 3.480748 -6.066319 0.000000 0.000000 0.000000 1.980409 -1.753143 1.539746 -0.555322 -1.795773 -3.083225 1.381823 5.249751 4.604183 0.000000 0.000000 0.000000 3.143434 0.196523 -1.800035 3.051229 2.087998 0.297255 2.945567 -0.245048 1.157590 0.000000 0.000000 0.000000 1.462742 -0.089966 2.623129 1.545768 -1.011444 0.354453 1.465294 2.107639 0.729538 0.000000 0.000000 0.000000 
-2522.256592 1045.774048 1182.201050 1.070685 -0.870912 0.615927 0.486919 0.893825 -2.032186 0.623709 -0.212478 0.472113 0.571979 0.233708 -0.329519 -0.075351 0.939914 0.319165 0.000000 0.000000 0.000000 -1.369209 -1.541767 1.960826 -0.054583 -1.847302 4.840074 -1.201731 3.484468 -6.065166 0.000000 0.000000 0.000000 2.002070 -1.733543 1.526075 -0.555801 -1.780601 -3.093203 1.380143 5.249626 4.599090 0.000000 0.000000 0.000000 3.153123 0.224741 -1.797692 3.061984 2.077537 0.275406 2.953898 -0.235802 1.162653 0.000000 0.000000 0.000000 1.479981 -0.064613 2.611504 1.562954 -1.006624 0.355835 1.482030 2.108342 0.736607 0.000000 0.000000 0.000000 
-2521.969482 1045.927124 1182.114990 1.049495 -0.926240 0.594970 0.498980 0.914351 -1.975887 0.632033 -0.219752 0.466985 0.581096 0.241705 -0.325928 -0.070379 0.947208 0.304614 0.000000 0.000000 0.000000 -1.345611 -1.515747 1.944548 -0.059202 -1.816944 4.812089 -1.202969 3.508592 -6.045064 0.000000 0.000000 0.000000 2.021450 -1.719748 1.500562 -0.556644 -1.771569 -3.107152 1.380953 5.251670 4.603457 0.000000 0.000000 0.000000 3.160336 0.292748 -1.790882 3.068318 2.079831 0.296485 2.961903 -0.200681 1.172151 0.000000 0.000000 0.000000 1.506917 -0.006509 2.633690 1.591566 -0.974354 0.339718 1.508153 2.128325 0.748668 0.000000 0.000000 0.000000 
-2521.666992 1046.112793 1182.022949 1.032165 -1.013564 0.563148 0.508959 0.973695 -1.900283 0.636755 -0.231682 0.458142 0.587193 0.256599 -0.319690 -0.065114 0.946732 0.288455 0.000000 0.000000 0.000000 -1.316785 -1.496503 1.924686 -0.063878 -1.792411 4.775081 -1.204727 3.543855 -6.016850 0.000000 0.000000 0.000000 2.039359 -1.710158 1.469366 -0.557859 -1.766760 -3.124223 1.383398 5.255300 4.614097 0.000000 0.000000 0.000000 3.166017 0.392186 -1.783469 3.072043 2.085846 0.339195 2.969395 -0.148621 1.184434 0.000000 0.000000 0.000000 1.538659 0.078329 2.671053 1.625991 -0.929537 0.314988 1.538963 2.162984 0.763499 0.000000 0.000000 0.000000 
-2521.350098 1046.288086 1181.949951 1.031885 -1.130266 0.548398 0.512048 1.078848 -1.850691 0.635953 -0.252850 0.451161 0.587800 0.279749 -0.313952 -0.065179 0.940734 0.288074 0.000000 0.000000 0.000000 -1.305727 -1.482926 1.914923 -0.067627 -1.775929 4.744759 -1.207204 3.576501 -5.999698 0.000000 0.000000 0.000000 2.052199 -1.707363 1.451709 -0.560085 -1.766230 -3.147102 1.385989 5.257029 4.625358 0.000000 0.000000 0.000000 3.164991 0.531055 -1.784149 3.069408 2.086744 0.366685 2.969374 -0.097051 1.193571 0.000000 0.000000 0.000000 1.557087 0.212954 2.690272 1.647879 -0.920039 0.294412 1.557177 2.218150 0.774174 0.000000 0.000000 0.000000 
-2521.002930 1046.437622 1181.917969 1.065962 -1.262905 0.568747 0.505292 1.212447 -1.853404 0.628359 -0.281820 0.447569 0.581386 0.309808 -0.310483 -0.075192 0.940198 0.318567 0.000000 0.000000 0.000000 -1.333882 -1.470045 1.927976 -0.070794 -1.765057 4.726314 -1.211333 3.601225 -6.008415 0.000000 0.000000 0.000000 2.059331 -1.712008 1.454846 -0.563328 -1.769218 -3.182679 1.390943 5.257459 4.647028 0.000000 0.000000 0.000000 3.150282 0.700556 -1.802937 3.053883 2.079285 0.361517 2.953922 -0.044575 1.196590 0.000000 0.000000 0.000000 1.550786 0.391311 2.671223 1.645329 -0.965588 0.281262 1.551010 2.310554 0.776669 0.000000 0.000000 0.000000 
-2520.641357 1046.577759 1181.906982 1.117182 -1.424324 0.606308 0.491569 1.390449 -1.881872 0.615086 -0.319148 0.444726 0.569434 0.347396 -0.306816 -0.090823 0.935530 0.365840 0.000000 0.000000 0.000000 -1.379699 -1.462609 1.951742 -0.073162 -1.761938 4.714162 -1.216369 3.623760 -6.029324 0.000000 0.000000 0.000000 2.061445 -1.723255 1.470809 -0.567448 -1.776360 -3.223846 1.396251 5.255885 4.670235 0.000000 0.000000 0.000000 3.128704 0.908780 -1.830315 3.031860 2.066747 0.341505 2.930856 0.008266 1.196571 0.000000 0.000000 0.000000 1.531122 0.618392 2.633477 1.630190 -1.045855 0.272269 1.532208 2.423983 0.775021 0.000000 0.000000 0.000000 
-2520.307617 1046.711670 1181.878052 1.148754 -1.650458 0.635383 0.474999 1.661637 -1.903109 0.598272 -0.364160 0.444666 0.553915 0.396332 -0.303618 -0.104263 0.899398 0.403562 0.000000 0.000000 0.000000 -1.403800 -1.473289 1.964910 -0.072708 -1.775113 4.708607 -1.219369 3.642222 -6.038783 0.000000 0.000000 0.000000 2.051736 -1.742706 1.498993 -0.572897 -1.789741 -3.252985 1.394814 5.249767 4.663714 0.000000 0.000000 0.000000 3.114196 1.189291 -1.845296 3.017481 2.049574 0.322559 2.915326 0.042534 1.196312 0.000000 0.000000 0.000000 1.514044 0.933102 2.602429 1.619623 -1.149279 0.270982 1.518682 2.516118 0.774418 0.000000 0.000000 0.000000 
